<?xml version="1.0" encoding="utf-8"?>
<!-- Generator: Adobe Illustrator 22.0.0, SVG Export Plug-In . SVG Version: 6.00 Build 0)  -->
<svg version="1.1" id="b8a77818-6ab0-46b3-bde5-d559b2498a42"
	 xmlns="http://www.w3.org/2000/svg" xmlns:xlink="http://www.w3.org/1999/xlink" x="0px" y="0px" viewBox="0 0 1000.1 670.6"
	 style="enable-background:new 0 0 1000.1 670.6;" xml:space="preserve">
<style type="text/css">
	.st0{fill:#E6E6E6;}
	.st1{fill:#FFFFFF;}
	.st2{opacity:0.2;enable-background:new    ;}
	.st3{fill:#303030;}
	.st4{fill:#757575;}
</style>
<path class="st0" d="M910.6,368.2c-8.1,23.9-18.2,47.2-30.2,69.4c-0.7,1.2-1.3,2.4-2,3.7V194.3c0.7-2,1.3-4.1,2-6.1
	c26.9-82.6,46.9-159,40.3-188.2C922.7,7.3,970.5,192.7,910.6,368.2z"/>
<path class="st0" d="M1000.1,251.8c-0.7,4.6-23.7,141-119.7,221.9c-0.7,0.6-1.3,1.1-2,1.7v-73.7c0.7-0.7,1.3-1.4,2-2
	c9.8-10.1,20-20.7,30.2-31.5C954,321.9,995.9,272.9,1000.1,251.8z"/>
<ellipse class="st0" cx="111.5" cy="660.6" rx="111.5" ry="10"/>
<path class="st0" d="M874.4,119.6H242.9c-3.3,0-6,2.7-6,6c0,0,0,0,0,0v350c0,3.3,2.7,6,6,6c0,0,0,0,0,0h631.6c3.3,0,6-2.7,6-6
	c0,0,0,0,0,0v-350C880.4,122.3,877.7,119.6,874.4,119.6C874.4,119.6,874.4,119.6,874.4,119.6z M878.4,475.6c0,2.2-1.8,4-4,4
	c0,0,0,0,0,0H242.9c-2.2,0-4-1.8-4-4c0,0,0,0,0,0v-350c0-2.2,1.8-4,4-4c0,0,0,0,0,0h631.6c2.2,0,4,1.8,4,4c0,0,0,0,0,0V475.6z"/>
<rect x="298.9" y="119.6" class="st0" width="2" height="362"/>
<path d="M250.7,150.8c0-10.3,8.4-18.7,18.7-18.7s18.7,8.4,18.7,18.7c0,10.3-8.4,18.7-18.7,18.7l0,0
	C259,169.5,250.7,161.1,250.7,150.8z"/>
<path d="M250.7,223.8c0-10.3,8.4-18.7,18.7-18.7s18.7,8.4,18.7,18.7s-8.4,18.7-18.7,18.7l0,0C259,242.5,250.7,234.1,250.7,223.8z"/>
<path d="M250.7,296.8c0-10.3,8.4-18.7,18.7-18.7s18.7,8.4,18.7,18.7s-8.4,18.7-18.7,18.7l0,0C259,315.5,250.7,307.1,250.7,296.8z"/>
<path class="st1" d="M262,149h5.5v-5.5c0-1,0.8-1.8,1.8-1.8c1,0,1.8,0.8,1.8,1.8c0,0,0,0,0,0v5.5h5.5c1,0,1.8,0.8,1.8,1.8
	c0,1-0.8,1.8-1.8,1.8h-5.5v5.5c0,1-0.8,1.8-1.8,1.8c-1,0-1.8-0.8-1.8-1.8v-5.5H262c-1,0-1.8-0.8-1.8-1.8
	C260.1,149.8,261,149,262,149L262,149z"/>
<path class="st1" d="M265.9,229h15.6c0,0,0,0,0.1,0l-7.4-12.8c-0.1-0.2-0.5-0.3-0.7-0.2c-0.1,0-0.1,0.1-0.2,0.2l-5,8.6l-0.2,0.4
	L265.9,229z"/>
<polygon class="st2" points="265.9,229 271.2,229 268.6,225.2 268.4,224.9 268.3,224.8 268,225.2 "/>
<path class="st1" d="M257.2,229h13.5l-2.6-3.8l-0.2-0.3l-3.4-5c-0.2-0.3-0.7-0.3-1-0.1c0,0,0,0-0.1,0c0,0,0,0,0,0.1L257.2,229z"/>
<circle class="st1" cx="267.3" cy="216.9" r="2.3"/>
<rect x="336.8" y="259.3" transform="matrix(0.7735 -0.6338 0.6338 0.7735 -55.7399 364.4869)" class="st0" width="290.5" height="1.8"/>
<rect x="481.1" y="115.2" transform="matrix(0.6359 -0.7717 0.7717 0.6359 -25.6826 466.928)" class="st0" width="1.8" height="291.1"/>
<path class="st0" d="M591.1,164.9H372.5c-3.5,0-6.4,2.9-6.4,6.4v177.3c0,3.5,2.9,6.4,6.4,6.4h218.6c3.5,0,6.4-2.9,6.4-6.4V171.3
	C597.5,167.8,594.6,164.9,591.1,164.9z M372.5,353.2c-2.5,0-4.6-2.1-4.6-4.6V171.3c0-2.5,2.1-4.6,4.6-4.6h218.6
	c2.5,0,4.6,2.1,4.6,4.6v177.3c0,2.5-2.1,4.6-4.6,4.6H372.5z"/>
<g id="b7202e77-47b3-4d88-8d2a-2206841e46b2">
	<path class="st0" d="M633.2,264.8c-1.9,0-3.4,2.1-3.3,4.6c0,2.4,1.5,4.4,3.3,4.4h176.9c1.9,0,3.4-1.9,3.5-4.4s-1.5-4.5-3.3-4.6
		c0,0-0.1,0-0.1,0H633.2z"/>
</g>
<path id="bfc1215b-6465-4563-8feb-7e589d2c97b6" d="M633.2,238.8c-1.9,0-3.4,2.1-3.3,4.6c0,2.4,1.5,4.4,3.3,4.4h95.9
	c1.9,0,3.4-1.9,3.5-4.4s-1.5-4.5-3.3-4.6c0,0-0.1,0-0.1,0H633.2z"/>
<g id="e482ad8c-5b59-4aa3-8d0a-acebf632571d">
	<path class="st0" d="M633.2,291.9c-1.9,0-3.4,2.1-3.3,4.6c0,2.4,1.5,4.4,3.3,4.4h176.9c1.9,0,3.4-1.9,3.5-4.4s-1.5-4.5-3.3-4.6
		c0,0-0.1,0-0.1,0H633.2z"/>
</g>
<g id="a4240805-a668-4077-939e-34c0ef9642f4">
	<path class="st0" d="M633.2,318.7c-1.9,0-3.4,2.1-3.3,4.6c0,2.4,1.5,4.4,3.3,4.4h176.9c1.9,0,3.4-1.9,3.5-4.4s-1.5-4.5-3.3-4.6
		c0,0-0.1,0-0.1,0H633.2z"/>
</g>
<g id="ecd3311d-200b-4df1-9e16-2b2cfcf2d576">
	<path class="st0" d="M633.2,345.9c-1.9,0-3.4,2.1-3.3,4.6c0,2.4,1.5,4.4,3.3,4.4h176.9c1.9,0,3.4-1.9,3.5-4.4s-1.5-4.5-3.3-4.6
		c0,0-0.1,0-0.1,0H633.2z"/>
</g>
<g id="b12ed9b2-cc32-4c4f-a9d5-2d1deb4d0e3e">
	<path class="st0" d="M366.5,373.5c-1.9,0-3.4,2.1-3.3,4.6c0,2.4,1.5,4.4,3.3,4.4h444.9c1.9,0,3.4-1.9,3.5-4.4s-1.5-4.5-3.3-4.6
		c0,0-0.1,0-0.1,0H366.5z"/>
</g>
<g id="e10bb4bc-6df1-41b6-ac46-84090840b498">
	<path class="st0" d="M366.5,400.6c-1.9,0-3.4,2.1-3.3,4.6c0,2.4,1.5,4.4,3.3,4.4h444.9c1.9,0,3.4-1.9,3.5-4.4s-1.5-4.5-3.3-4.6
		c0,0-0.1,0-0.1,0H366.5z"/>
</g>
<g id="e3c0a870-6a35-4470-a43f-0902a465f5fb">
	<path class="st0" d="M366.5,427.4c-1.9,0-3.4,2.1-3.3,4.6c0,2.4,1.5,4.4,3.3,4.4h444.9c1.9,0,3.4-1.9,3.5-4.4s-1.5-4.5-3.3-4.6
		c0,0-0.1,0-0.1,0H366.5z"/>
</g>
<path class="st3" d="M179.5,631.5l-26.9-0.8L114,469.6L48.1,627.4L18,626.5c28.6-122.9,57.4-248,79.2-282.7l60.5,17.5L179.5,631.5z"
	/>
<path class="st3" d="M62.8,664.8l-1.9,0.1c-1.9,0.2-3.8-0.1-5.5-0.9l-36.2-4.3c-6.4-2.6-9.5-9.9-6.9-16.3c0,0,0-0.1,0-0.1l7.8-18.8
	h25.4l26.2,21.3c3.8,5.5,2.4,13-3.1,16.8C66.9,663.9,64.9,664.7,62.8,664.8z"/>
<path class="st3" d="M195.8,664.8l-1.9,0.1c-1.9,0.2-3.8-0.1-5.5-0.9l-36.2-4.3c-6.4-2.6-9.5-9.9-6.9-16.3c0,0,0-0.1,0-0.1l7.8-18.8
	h25.4l26.2,21.3c3.8,5.5,2.4,13-3.1,16.8C199.9,663.9,197.9,664.7,195.8,664.8z"/>
<path class="st4" d="M174.9,320.9l-47.5-31.3l22-13.3l31.1,19.3l50.6,7.6l7.7-7.6c4.7-4.6,12.3-4.6,16.9,0.1c0.6,0.6,1.1,1.3,1.6,2
	l0,0c3.6,5.6,1.9,13-3.7,16.5c-1.1,0.7-2.4,1.3-3.7,1.6l-7.6,1.8L174.9,320.9z"/>
<path class="st0" d="M127.6,298.1c-5.3-11-14.5-20-27.1-27.3l24.7-24.7c11.9,6.7,22.3,17.4,32,30.1L127.6,298.1z"/>
<circle class="st4" cx="126.6" cy="192.1" r="27.5"/>
<path class="st4" d="M140.5,248.2l-35-8.8c3.1-8.9,2-22.4,0-36.6h35C135.4,219.4,134,235.4,140.5,248.2z"/>
<path class="st0" d="M159.6,367.5l-65.6-15c-6.9-48.4-8.4-98.9,12.3-116.3l32.6,4l24.6,31.5c1.9,2.4,3.5,5.1,4.9,7.9
	c5.3,11.1,4.3,24-1.8,34.7C157.4,330.5,154.5,348.1,159.6,367.5z"/>
<path class="st4" d="M96.2,335.8l10.7-55.9l20.7,15.2l-5.9,36.1l32.3,39.4l10,4.2c6.1,2.5,9,9.6,6.4,15.6c-0.3,0.8-0.7,1.5-1.2,2.2
	l0,0c-3.8,5.4-11.2,6.7-16.6,3c-1.1-0.8-2.1-1.7-2.9-2.8l-4.6-6.3L96.2,335.8z"/>
<path class="st0" d="M136.7,268.8c-4.5,11.3-4.9,24.2-1.8,38.4l-34.9-1.4c-3.1-13.3-2.3-28.2,0.6-43.9L136.7,268.8z"/>
<path class="st3" d="M138.5,161.8c0,0-32.6-18.3-48.5,15.1s-11.1,62.9-11.1,62.9l30.2-0.8l7.2-7.2l5.6,6.4l0.1-0.1
	c8-13.3,12.6-28.4,13.4-43.9c0.3-4.2,1.7-8.1,5.6-10.1c11.1-5.6,13.5-5.6,13.5-5.6S160.8,163.4,138.5,161.8z"/>
<path class="st1" d="M276.8,288.8H262c-1,0-1.9,0.7-2.1,1.7c-0.2,1.1,0.5,2.1,1.6,2.3c0.1,0,0.2,0,0.3,0h4.4c0.6,0,1.1,0.5,1.1,1.1
	v8.8c0,1,0.7,1.9,1.7,2.1c1.1,0.2,2.1-0.5,2.3-1.6c0-0.1,0-0.2,0-0.3v-8.9c0-0.6,0.5-1.1,1.1-1.1h4.3c1,0,1.9-0.7,2.1-1.7
	c0.2-1.1-0.5-2.1-1.6-2.3C277.1,288.8,277,288.8,276.8,288.8z"/>
<circle class="st1" cx="276.8" cy="302.8" r="2"/>
</svg>
